<?xml version="1.0"?>
<svg xmlns="http://www.w3.org/2000/svg" xmlns:xlink="http://www.w3.org/1999/xlink" xmlns:svgjs="http://svgjs.com/svgjs" version="1.1" width="512" height="512" x="0" y="0" viewBox="0 0 512 512" style="enable-background:new 0 0 512 512" xml:space="preserve"><g><g xmlns="http://www.w3.org/2000/svg" id="outline"><path d="M488,160H431.118a49.57,49.57,0,0,0-13.745-25.94A47.683,47.683,0,0,0,383.432,120H368a48.069,48.069,0,0,0-47.321,40H304a24,24,0,0,0-48,0H233.394A63.207,63.207,0,0,0,208,129.481V104a8,8,0,0,0-8-8V80h28.007a26,26,0,1,0-10.478-40H199.892a25.969,25.969,0,0,0-43.784,0H138.471a25.991,25.991,0,1,0-10.477,40H152V96a8,8,0,0,0-8,8v24.127A63.208,63.208,0,0,0,116.321,160H96a24,24,0,0,0-48,0H24a8,8,0,0,0-8,8v48a8,8,0,0,0,8,8H48a24,24,0,0,0,48,0h20.321a62.832,62.832,0,0,0,117.073,0H256a24,24,0,0,0,48,0h8v24a8,8,0,0,0,8,8V463.539a32.461,32.461,0,0,0,64.9,1.276l6.864-162.969L434.53,287.59A8,8,0,0,0,440,280V232a8,8,0,0,0-5.8-7.692L433.121,224H488a8,8,0,0,0,8-8V168A8,8,0,0,0,488,160ZM368,136h15.432a31.787,31.787,0,0,1,22.627,9.373,33.716,33.716,0,0,1,9.941,24v49.735l-16-4.571V168a8,8,0,0,0-8-8H337.012A32.058,32.058,0,0,1,368,136ZM328,240V224h40v16ZM238,46a10,10,0,1,1-10,10A10.011,10.011,0,0,1,238,46ZM213.265,64H202a25.805,25.805,0,0,0,1.919-8H212A25.882,25.882,0,0,0,213.265,64ZM178,44a10,10,0,1,1-10,10A10.011,10.011,0,0,1,178,44ZM152.084,56A25.805,25.805,0,0,0,154,64H142.735A25.882,25.882,0,0,0,144,56ZM108,56a10,10,0,1,1,10,10A10.011,10.011,0,0,1,108,56Zm60,24h16V96H168Zm-8,32h32v10.4a62.538,62.538,0,0,0-32-.606ZM32,208V176H48v32Zm48,16a8,8,0,0,1-16,0V160a8,8,0,0,1,16,0Zm16-16V176h16.381a63.139,63.139,0,0,0-.381,6.857v18.286a63.139,63.139,0,0,0,.381,6.857Zm78.857,40h0A46.911,46.911,0,0,1,128,201.143V182.857a46.857,46.857,0,0,1,93.714,0v18.286A46.911,46.911,0,0,1,174.857,248Zm62.476-40a63.139,63.139,0,0,0,.381-6.857V182.857a63.139,63.139,0,0,0-.381-6.857H256v32ZM288,224a8,8,0,0,1-16,0V160a8,8,0,0,1,16,0Zm16-48h80v33.965s-7.677-1.951-7.79-1.954c-.071,0-72.21-.011-72.21-.011Zm120,98.234L381.47,288.41a8,8,0,0,0-5.463,7.253l-7.1,168.508A16.462,16.462,0,0,1,336,463.539V256h40a8,8,0,0,0,8-8v-21.4l40,11.429ZM480,208H432V176h48Z" fill="#ffffff" data-original="#000000" style=""/><path d="M200,192a8,8,0,0,0-8,8v2a14.015,14.015,0,0,1-14,14h-2a8,8,0,0,0,0,16h2a30.034,30.034,0,0,0,30-30v-2A8,8,0,0,0,200,192Z" fill="#ffffff" data-original="#000000" style=""/></g></g></svg>
