<?xml version="1.0"?>
<svg xmlns="http://www.w3.org/2000/svg" xmlns:xlink="http://www.w3.org/1999/xlink" xmlns:svgjs="http://svgjs.com/svgjs" version="1.1" width="512" height="512" x="0" y="0" viewBox="0 0 512.001 512.001" style="enable-background:new 0 0 512 512" xml:space="preserve" class=""><g>
<g xmlns="http://www.w3.org/2000/svg">
	<g>
		<circle cx="72.966" cy="438.408" r="15" fill="#ffffff" data-original="#000000" style="" class=""/>
	</g>
</g>
<g xmlns="http://www.w3.org/2000/svg">
	<g>
		<path d="M474.74,344.451c-0.099-0.074-0.198-0.147-0.299-0.218c-35.311-25.147-107.515-76.568-140.551-100.095l5.075-5.853    c0.039-0.046,0.079-0.092,0.118-0.138c2.855-3.375,7.029-5.311,11.45-5.311h58.511c12.021,0,23.319-4.681,31.818-13.18    l49.187-49.186c29.241-29.241,29.241-76.821,0-106.063c-2.813-2.813-6.628-4.394-10.606-4.394c-3.978,0-7.794,1.58-10.606,4.393    l-42.426,42.426c-5.848,5.848-15.365,5.848-21.212,0c-5.863-5.863-5.863-15.35,0-21.212l42.425-42.426    c5.858-5.858,5.858-15.355,0-21.212c-29.307-29.308-76.751-29.313-106.062,0L292.375,71.17    c-8.5,8.499-13.354,19.799-13.354,31.819v58.51c0,4.422-1.763,8.595-5.138,11.451c-0.035,0.03-0.071,0.06-0.106,0.091    l-19.914,17.172l-76.237-76.237l-20.089-60.277c-1.251-3.751-3.932-6.857-7.46-8.642L64.227,1.633    C58.444-1.292,51.435-0.173,46.85,4.41L4.424,46.836c-4.584,4.583-5.704,11.593-2.778,17.376l43.426,85.851    c1.784,3.528,4.891,6.209,8.642,7.46l60.278,20.093l71.532,71.532L26.631,386.168C12.239,398.37,3.002,415.37,0.617,434.047    c-2.484,19.459,2.851,38.176,15.023,52.699c28.281,33.746,79.489,33.439,107.464,0.479l119.133-137.388    c10.861,13.271,92.304,112.786,102.428,125.156c34.025,45.034,100.096,49.646,140.042,9.7    C524.752,444.649,519.998,378.395,474.74,344.451z M132.701,153.899c-1.646-1.646-3.654-2.887-5.863-3.624l-57.782-19.26    L33.321,60.367L60.38,33.306l70.648,35.736l19.26,57.782c0.736,2.209,1.978,4.217,3.624,5.863l77.173,77.172l-22.78,19.644    L132.701,153.899z M100.39,467.629c-0.039,0.046-0.079,0.092-0.118,0.138c-15.97,18.875-45.319,19.182-61.639-0.29    c-13.865-16.544-10.461-43.315,7.436-58.457c0.035-0.03,0.071-0.061,0.106-0.091C179.385,294.241,260.355,224.23,293.32,195.803    c10.091-8.566,15.703-21.064,15.703-34.304v-58.51c0-4.006,1.733-7.773,4.566-10.606l49.187-49.187    c14.099-14.099,34.838-16.651,51.229-8.804l-30.015,30.016c-17.546,17.545-17.546,46.093,0,63.638    c17.544,17.544,46.093,17.544,63.637,0l30.002-30.001c7.969,16.725,5.039,37.386-8.789,51.214l-49.187,49.187    c-2.833,2.833-6.6,4.593-10.606,4.593h-58.511c-13.229,0-25.719,5.577-34.284,15.654L100.39,467.629z M262.181,326.838    l51.967-59.931l24.014,17.102l-56.018,67.222L262.181,326.838z M463.495,463.481c-27.133,27.131-72.027,23.918-95.03-6.753    c-0.127-0.169-0.258-0.336-0.392-0.5l-66.58-81.355l61.176-73.412l94.211,67.093C487.473,391.631,490.544,436.432,463.495,463.481    z" fill="#ffffff" data-original="#000000" style="" class=""/>
	</g>
</g>
<g xmlns="http://www.w3.org/2000/svg">
</g>
<g xmlns="http://www.w3.org/2000/svg">
</g>
<g xmlns="http://www.w3.org/2000/svg">
</g>
<g xmlns="http://www.w3.org/2000/svg">
</g>
<g xmlns="http://www.w3.org/2000/svg">
</g>
<g xmlns="http://www.w3.org/2000/svg">
</g>
<g xmlns="http://www.w3.org/2000/svg">
</g>
<g xmlns="http://www.w3.org/2000/svg">
</g>
<g xmlns="http://www.w3.org/2000/svg">
</g>
<g xmlns="http://www.w3.org/2000/svg">
</g>
<g xmlns="http://www.w3.org/2000/svg">
</g>
<g xmlns="http://www.w3.org/2000/svg">
</g>
<g xmlns="http://www.w3.org/2000/svg">
</g>
<g xmlns="http://www.w3.org/2000/svg">
</g>
<g xmlns="http://www.w3.org/2000/svg">
</g>
</g></svg>
