<svg id="Capa_1" enable-background="new 0 0 512 512" height="512" viewBox="0 0 512 512" width="512" xmlns="http://www.w3.org/2000/svg"><g><g><path d="m457.71 435.145-32.588-63.087c-1.735-3.359-5.198-5.469-8.978-5.47-.002 0-.003 0-.004 0-3.778 0-7.242 2.107-8.978 5.463-22.451 43.382-34.035 65.817-34.43 66.68-2.87 6.267-4.325 12.945-4.325 19.849 0 26.321 21.413 47.734 47.733 47.734s47.734-21.413 47.734-47.734c0-7.712-1.949-15.141-6.134-23.376-.009-.019-.02-.039-.03-.059zm-41.57 50.951c-15.171 0-27.514-12.343-27.514-27.515 0-3.936.819-7.742 2.437-11.315 1.074-2.141 13.479-26.145 25.071-48.553l23.596 45.679c2.715 5.35 3.926 9.728 3.926 14.189-.001 15.171-12.343 27.515-27.516 27.515z"/><path d="m384.166 343.636 59.482-26.35c9.399-4.164 16.548-11.764 20.131-21.399 3.582-9.635 3.135-20.059-1.261-29.352l-12.688-26.828c-2.34-4.948-8.189-7.134-13.202-4.935l-11.293 4.956-17.458-34.892c-29.752-59.547-103.804-85.489-164.232-57.338l-62.016 28.461v-65.649l10.195-39.037c1.531-3.999 5.386-6.663 9.695-6.663h114.582c40.789 0 65.626-47.877 66.664-49.915 1.595-3.134 1.447-6.872-.391-9.87-1.837-2.998-5.101-4.825-8.618-4.825h-243.58c-5.082 0-10.307.245-15.53.729-20.487 1.897-35.938 18.926-35.938 39.608v68.655c0 .017.002.033.003.05v133.517c0 5.583 4.526 10.11 10.11 10.11 5.583 0 10.11-4.526 10.11-10.11v-123.455h62.479v72.617c0 3.444 1.753 6.651 4.652 8.51 2.899 1.86 6.546 2.115 9.674.678l76.394-35.06c50.651-23.596 112.716-1.897 137.662 48.028l17.003 33.984-55.876 24.519-18.454-33.202c-11.672-21.011-37.746-29.215-59.365-18.674l-106.013 51.719c-3.473 1.694-5.677 5.221-5.677 9.086v163.896h-62.48v-113.776c0-5.583-4.526-10.11-10.11-10.11-5.583 0-10.11 4.526-10.11 10.11v113.798c-18.208.445-32.885 15.384-32.885 33.697v22.966c0 5.583 4.526 10.11 10.11 10.11h150.452c5.583 0 10.11-4.526 10.11-10.11v-22.966c0-18.593-15.126-33.719-33.719-33.719h-1.15v-157.58l100.335-48.949c11.957-5.828 26.375-1.296 32.828 10.322l17.531 31.542-5.392 2.366c-2.463 1.081-4.394 3.1-5.366 5.609-.97 2.509-.901 5.302.193 7.76l12.537 28.162c6.261 14.062 20.123 22.435 34.618 22.435 5.108.001 10.295-1.039 15.254-3.236zm-285.238-303.299c0-10.174 7.56-18.546 17.584-19.475 4.605-.427 9.203-.643 13.665-.643h224.789c-8.654 11.007-22.441 24.172-38.864 24.172h-114.582c-13.026 0-24.645 8.265-28.911 20.566-.087.25-.163.502-.23.758l-8.662 33.166h-64.789zm97.35 438.588v12.856h-130.233v-12.856c0-7.443 6.056-13.499 13.499-13.499h103.234c7.444-.001 13.5 6.055 13.5 13.499zm156.488-162.71-8.404-18.877 91.391-40.102 8.487 17.943c2.046 4.325 2.254 9.176.587 13.661-1.667 4.484-4.995 8.021-9.37 9.959l-59.482 26.35c-8.857 3.925-19.269-.083-23.209-8.934z"/><path d="m79.487 290.064c3.395 8.289 15.563 8.073 18.761-.23 3.379-8.772-6.562-17.134-14.624-12.306-4.237 2.537-6.036 7.979-4.137 12.536z"/></g></g></svg>